<mxfile host="Electron" modified="2025-09-25T05:26:22.361Z" agent="Mozilla/5.0 (Windows NT 10.0; Win64; x64) AppleWebKit/537.36 (KHTML, like Gecko) draw.io/24.2.5 Chrome/120.0.6099.109 Electron/28.1.0 Safari/537.36" etag="C2867A3B9L8GI_oVlzVs" version="24.2.5" type="device">
  <diagram id="C5RBs43oDa-KdzZeNtuy" name="Page-1">
    <mxGraphModel dx="1338" dy="1989" grid="1" gridSize="10" guides="1" tooltips="1" connect="1" arrows="1" fold="1" page="1" pageScale="1" pageWidth="827" pageHeight="1169" math="0" shadow="0">
      <root>
        <mxCell id="WIyWlLk6GJQsqaUBKTNV-0" />
        <mxCell id="WIyWlLk6GJQsqaUBKTNV-1" parent="WIyWlLk6GJQsqaUBKTNV-0" />
        <mxCell id="dtSQGKAv_n2dpI7b6W1C-42" value="" style="edgeStyle=orthogonalEdgeStyle;rounded=0;orthogonalLoop=1;jettySize=auto;html=1;" edge="1" parent="WIyWlLk6GJQsqaUBKTNV-1" source="dtSQGKAv_n2dpI7b6W1C-0" target="dtSQGKAv_n2dpI7b6W1C-40">
          <mxGeometry relative="1" as="geometry" />
        </mxCell>
        <mxCell id="dtSQGKAv_n2dpI7b6W1C-0" value="INICIO&lt;br&gt;LISTA TRIMESTRAL" style="ellipse;whiteSpace=wrap;html=1;aspect=fixed;" vertex="1" parent="WIyWlLk6GJQsqaUBKTNV-1">
          <mxGeometry x="240" y="-110" width="80" height="80" as="geometry" />
        </mxCell>
        <mxCell id="dtSQGKAv_n2dpI7b6W1C-4" value="" style="edgeStyle=orthogonalEdgeStyle;rounded=0;orthogonalLoop=1;jettySize=auto;html=1;" edge="1" parent="WIyWlLk6GJQsqaUBKTNV-1" source="dtSQGKAv_n2dpI7b6W1C-1" target="dtSQGKAv_n2dpI7b6W1C-3">
          <mxGeometry relative="1" as="geometry" />
        </mxCell>
        <mxCell id="dtSQGKAv_n2dpI7b6W1C-1" value="Mostrar lista" style="rounded=1;whiteSpace=wrap;html=1;" vertex="1" parent="WIyWlLk6GJQsqaUBKTNV-1">
          <mxGeometry x="220" y="160" width="120" height="60" as="geometry" />
        </mxCell>
        <mxCell id="dtSQGKAv_n2dpI7b6W1C-6" value="" style="edgeStyle=orthogonalEdgeStyle;rounded=0;orthogonalLoop=1;jettySize=auto;html=1;" edge="1" parent="WIyWlLk6GJQsqaUBKTNV-1" source="dtSQGKAv_n2dpI7b6W1C-3" target="dtSQGKAv_n2dpI7b6W1C-5">
          <mxGeometry relative="1" as="geometry" />
        </mxCell>
        <mxCell id="dtSQGKAv_n2dpI7b6W1C-3" value="Se checa el alumno" style="whiteSpace=wrap;html=1;rounded=1;" vertex="1" parent="WIyWlLk6GJQsqaUBKTNV-1">
          <mxGeometry x="220" y="250" width="120" height="60" as="geometry" />
        </mxCell>
        <mxCell id="dtSQGKAv_n2dpI7b6W1C-8" value="" style="edgeStyle=orthogonalEdgeStyle;rounded=0;orthogonalLoop=1;jettySize=auto;html=1;" edge="1" parent="WIyWlLk6GJQsqaUBKTNV-1" source="dtSQGKAv_n2dpI7b6W1C-5" target="dtSQGKAv_n2dpI7b6W1C-7">
          <mxGeometry relative="1" as="geometry" />
        </mxCell>
        <mxCell id="dtSQGKAv_n2dpI7b6W1C-5" value="Se checa materia" style="whiteSpace=wrap;html=1;rounded=1;" vertex="1" parent="WIyWlLk6GJQsqaUBKTNV-1">
          <mxGeometry x="220" y="330" width="120" height="60" as="geometry" />
        </mxCell>
        <mxCell id="dtSQGKAv_n2dpI7b6W1C-10" value="" style="edgeStyle=orthogonalEdgeStyle;rounded=0;orthogonalLoop=1;jettySize=auto;html=1;" edge="1" parent="WIyWlLk6GJQsqaUBKTNV-1" source="dtSQGKAv_n2dpI7b6W1C-7" target="dtSQGKAv_n2dpI7b6W1C-9">
          <mxGeometry relative="1" as="geometry" />
        </mxCell>
        <mxCell id="dtSQGKAv_n2dpI7b6W1C-7" value="Se checa mes" style="whiteSpace=wrap;html=1;rounded=1;" vertex="1" parent="WIyWlLk6GJQsqaUBKTNV-1">
          <mxGeometry x="220" y="420" width="120" height="60" as="geometry" />
        </mxCell>
        <mxCell id="dtSQGKAv_n2dpI7b6W1C-12" value="" style="edgeStyle=orthogonalEdgeStyle;rounded=0;orthogonalLoop=1;jettySize=auto;html=1;" edge="1" parent="WIyWlLk6GJQsqaUBKTNV-1" source="dtSQGKAv_n2dpI7b6W1C-9" target="dtSQGKAv_n2dpI7b6W1C-11">
          <mxGeometry relative="1" as="geometry" />
        </mxCell>
        <mxCell id="dtSQGKAv_n2dpI7b6W1C-9" value="Se toma calificacion que coincida con alumno, materia y mes y coloca en el espacio correspondiente" style="whiteSpace=wrap;html=1;rounded=1;" vertex="1" parent="WIyWlLk6GJQsqaUBKTNV-1">
          <mxGeometry x="200" y="505" width="160" height="80" as="geometry" />
        </mxCell>
        <mxCell id="dtSQGKAv_n2dpI7b6W1C-14" value="" style="edgeStyle=orthogonalEdgeStyle;rounded=0;orthogonalLoop=1;jettySize=auto;html=1;" edge="1" parent="WIyWlLk6GJQsqaUBKTNV-1" source="dtSQGKAv_n2dpI7b6W1C-11" target="dtSQGKAv_n2dpI7b6W1C-13">
          <mxGeometry relative="1" as="geometry" />
        </mxCell>
        <mxCell id="dtSQGKAv_n2dpI7b6W1C-11" value="En casilla de promedio se calcula el promedio vertical de las calificaciones anteriores" style="whiteSpace=wrap;html=1;rounded=1;" vertex="1" parent="WIyWlLk6GJQsqaUBKTNV-1">
          <mxGeometry x="200" y="620" width="160" height="80" as="geometry" />
        </mxCell>
        <mxCell id="dtSQGKAv_n2dpI7b6W1C-16" value="" style="edgeStyle=orthogonalEdgeStyle;rounded=0;orthogonalLoop=1;jettySize=auto;html=1;" edge="1" parent="WIyWlLk6GJQsqaUBKTNV-1" source="dtSQGKAv_n2dpI7b6W1C-13" target="dtSQGKAv_n2dpI7b6W1C-15">
          <mxGeometry relative="1" as="geometry" />
        </mxCell>
        <mxCell id="dtSQGKAv_n2dpI7b6W1C-13" value="En la casilla de grupo de materias se coloca el promedio de las materias correspondientes" style="whiteSpace=wrap;html=1;rounded=1;" vertex="1" parent="WIyWlLk6GJQsqaUBKTNV-1">
          <mxGeometry x="200" y="730" width="160" height="80" as="geometry" />
        </mxCell>
        <mxCell id="dtSQGKAv_n2dpI7b6W1C-30" value="" style="edgeStyle=orthogonalEdgeStyle;rounded=0;orthogonalLoop=1;jettySize=auto;html=1;" edge="1" parent="WIyWlLk6GJQsqaUBKTNV-1" source="dtSQGKAv_n2dpI7b6W1C-15" target="dtSQGKAv_n2dpI7b6W1C-29">
          <mxGeometry relative="1" as="geometry" />
        </mxCell>
        <mxCell id="dtSQGKAv_n2dpI7b6W1C-15" value="En la casilla &quot;trimestral&quot; se coloca el promedio de los promedios" style="whiteSpace=wrap;html=1;rounded=1;" vertex="1" parent="WIyWlLk6GJQsqaUBKTNV-1">
          <mxGeometry x="200" y="830" width="160" height="80" as="geometry" />
        </mxCell>
        <mxCell id="dtSQGKAv_n2dpI7b6W1C-20" value="" style="edgeStyle=orthogonalEdgeStyle;rounded=0;orthogonalLoop=1;jettySize=auto;html=1;" edge="1" parent="WIyWlLk6GJQsqaUBKTNV-1" source="dtSQGKAv_n2dpI7b6W1C-17" target="dtSQGKAv_n2dpI7b6W1C-19">
          <mxGeometry relative="1" as="geometry" />
        </mxCell>
        <mxCell id="dtSQGKAv_n2dpI7b6W1C-26" value="SI" style="edgeLabel;html=1;align=center;verticalAlign=middle;resizable=0;points=[];" vertex="1" connectable="0" parent="dtSQGKAv_n2dpI7b6W1C-20">
          <mxGeometry x="-0.1778" y="1" relative="1" as="geometry">
            <mxPoint as="offset" />
          </mxGeometry>
        </mxCell>
        <mxCell id="dtSQGKAv_n2dpI7b6W1C-37" value="" style="edgeStyle=orthogonalEdgeStyle;rounded=0;orthogonalLoop=1;jettySize=auto;html=1;entryX=1;entryY=0.5;entryDx=0;entryDy=0;" edge="1" parent="WIyWlLk6GJQsqaUBKTNV-1" source="dtSQGKAv_n2dpI7b6W1C-17" target="dtSQGKAv_n2dpI7b6W1C-27">
          <mxGeometry relative="1" as="geometry">
            <mxPoint x="380" y="1264" as="targetPoint" />
            <Array as="points">
              <mxPoint x="450" y="1264" />
              <mxPoint x="450" y="1714" />
            </Array>
          </mxGeometry>
        </mxCell>
        <mxCell id="dtSQGKAv_n2dpI7b6W1C-38" value="NO" style="edgeLabel;html=1;align=center;verticalAlign=middle;resizable=0;points=[];" vertex="1" connectable="0" parent="dtSQGKAv_n2dpI7b6W1C-37">
          <mxGeometry x="-0.2" y="-2" relative="1" as="geometry">
            <mxPoint as="offset" />
          </mxGeometry>
        </mxCell>
        <mxCell id="dtSQGKAv_n2dpI7b6W1C-17" value="Â¿Se presiona boton compartir?" style="rhombus;whiteSpace=wrap;html=1;rounded=1;" vertex="1" parent="WIyWlLk6GJQsqaUBKTNV-1">
          <mxGeometry x="240" y="1224" width="80" height="80" as="geometry" />
        </mxCell>
        <mxCell id="dtSQGKAv_n2dpI7b6W1C-22" value="" style="edgeStyle=orthogonalEdgeStyle;rounded=0;orthogonalLoop=1;jettySize=auto;html=1;" edge="1" parent="WIyWlLk6GJQsqaUBKTNV-1" source="dtSQGKAv_n2dpI7b6W1C-19">
          <mxGeometry relative="1" as="geometry">
            <mxPoint x="280" y="1444" as="targetPoint" />
          </mxGeometry>
        </mxCell>
        <mxCell id="dtSQGKAv_n2dpI7b6W1C-19" value="Se convierte la lista en pdf" style="whiteSpace=wrap;html=1;rounded=1;" vertex="1" parent="WIyWlLk6GJQsqaUBKTNV-1">
          <mxGeometry x="220" y="1344" width="120" height="60" as="geometry" />
        </mxCell>
        <mxCell id="dtSQGKAv_n2dpI7b6W1C-25" value="" style="edgeStyle=orthogonalEdgeStyle;rounded=0;orthogonalLoop=1;jettySize=auto;html=1;" edge="1" parent="WIyWlLk6GJQsqaUBKTNV-1" source="dtSQGKAv_n2dpI7b6W1C-23" target="dtSQGKAv_n2dpI7b6W1C-24">
          <mxGeometry relative="1" as="geometry" />
        </mxCell>
        <mxCell id="dtSQGKAv_n2dpI7b6W1C-23" value="Se solicita correo electronico donde enviarlo" style="rounded=1;whiteSpace=wrap;html=1;" vertex="1" parent="WIyWlLk6GJQsqaUBKTNV-1">
          <mxGeometry x="220" y="1444" width="120" height="60" as="geometry" />
        </mxCell>
        <mxCell id="dtSQGKAv_n2dpI7b6W1C-28" value="" style="edgeStyle=orthogonalEdgeStyle;rounded=0;orthogonalLoop=1;jettySize=auto;html=1;" edge="1" parent="WIyWlLk6GJQsqaUBKTNV-1" source="dtSQGKAv_n2dpI7b6W1C-24" target="dtSQGKAv_n2dpI7b6W1C-27">
          <mxGeometry relative="1" as="geometry" />
        </mxCell>
        <mxCell id="dtSQGKAv_n2dpI7b6W1C-24" value="Se envia al correo definido" style="rounded=1;whiteSpace=wrap;html=1;" vertex="1" parent="WIyWlLk6GJQsqaUBKTNV-1">
          <mxGeometry x="220" y="1544" width="120" height="60" as="geometry" />
        </mxCell>
        <mxCell id="dtSQGKAv_n2dpI7b6W1C-27" value="FIN" style="ellipse;whiteSpace=wrap;html=1;rounded=1;" vertex="1" parent="WIyWlLk6GJQsqaUBKTNV-1">
          <mxGeometry x="240" y="1674" width="80" height="80" as="geometry" />
        </mxCell>
        <mxCell id="dtSQGKAv_n2dpI7b6W1C-34" style="edgeStyle=orthogonalEdgeStyle;rounded=0;orthogonalLoop=1;jettySize=auto;html=1;exitX=1;exitY=0.5;exitDx=0;exitDy=0;entryX=1;entryY=0.5;entryDx=0;entryDy=0;" edge="1" parent="WIyWlLk6GJQsqaUBKTNV-1" source="dtSQGKAv_n2dpI7b6W1C-29" target="dtSQGKAv_n2dpI7b6W1C-3">
          <mxGeometry relative="1" as="geometry">
            <Array as="points">
              <mxPoint x="510" y="970" />
              <mxPoint x="510" y="280" />
            </Array>
          </mxGeometry>
        </mxCell>
        <mxCell id="dtSQGKAv_n2dpI7b6W1C-35" value="SI" style="edgeLabel;html=1;align=center;verticalAlign=middle;resizable=0;points=[];" vertex="1" connectable="0" parent="dtSQGKAv_n2dpI7b6W1C-34">
          <mxGeometry x="-0.8267" y="1" relative="1" as="geometry">
            <mxPoint as="offset" />
          </mxGeometry>
        </mxCell>
        <mxCell id="dtSQGKAv_n2dpI7b6W1C-45" value="" style="edgeStyle=orthogonalEdgeStyle;rounded=0;orthogonalLoop=1;jettySize=auto;html=1;" edge="1" parent="WIyWlLk6GJQsqaUBKTNV-1" source="dtSQGKAv_n2dpI7b6W1C-29" target="dtSQGKAv_n2dpI7b6W1C-44">
          <mxGeometry relative="1" as="geometry" />
        </mxCell>
        <mxCell id="dtSQGKAv_n2dpI7b6W1C-29" value="Â¿Hay mas alumnos?" style="rhombus;whiteSpace=wrap;html=1;rounded=1;" vertex="1" parent="WIyWlLk6GJQsqaUBKTNV-1">
          <mxGeometry x="240" y="930" width="80" height="80" as="geometry" />
        </mxCell>
        <mxCell id="dtSQGKAv_n2dpI7b6W1C-41" value="" style="edgeStyle=orthogonalEdgeStyle;rounded=0;orthogonalLoop=1;jettySize=auto;html=1;" edge="1" parent="WIyWlLk6GJQsqaUBKTNV-1" source="dtSQGKAv_n2dpI7b6W1C-40" target="dtSQGKAv_n2dpI7b6W1C-1">
          <mxGeometry relative="1" as="geometry" />
        </mxCell>
        <mxCell id="dtSQGKAv_n2dpI7b6W1C-40" value="Consultar alumnos del grupo seleccionado" style="shape=cylinder3;whiteSpace=wrap;html=1;boundedLbl=1;backgroundOutline=1;size=15;" vertex="1" parent="WIyWlLk6GJQsqaUBKTNV-1">
          <mxGeometry x="240" y="10" width="82.5" height="110" as="geometry" />
        </mxCell>
        <mxCell id="dtSQGKAv_n2dpI7b6W1C-46" value="" style="edgeStyle=orthogonalEdgeStyle;rounded=0;orthogonalLoop=1;jettySize=auto;html=1;" edge="1" parent="WIyWlLk6GJQsqaUBKTNV-1" source="dtSQGKAv_n2dpI7b6W1C-44" target="dtSQGKAv_n2dpI7b6W1C-17">
          <mxGeometry relative="1" as="geometry" />
        </mxCell>
        <mxCell id="dtSQGKAv_n2dpI7b6W1C-44" value="Se guarda estado de la lista" style="shape=cylinder3;whiteSpace=wrap;html=1;boundedLbl=1;backgroundOutline=1;size=15;" vertex="1" parent="WIyWlLk6GJQsqaUBKTNV-1">
          <mxGeometry x="251" y="1080" width="60" height="80" as="geometry" />
        </mxCell>
      </root>
    </mxGraphModel>
  </diagram>
</mxfile>
